<?xml version="1.0" encoding="iso-8859-1"?>
<!-- Generator: Adobe Illustrator 19.0.0, SVG Export Plug-In . SVG Version: 6.00 Build 0)  -->
<svg fill="#F3F6F9" version="1.1" id="Capa_1" xmlns="http://www.w3.org/2000/svg" xmlns:xlink="http://www.w3.org/1999/xlink" x="0px" y="0px"
	 viewBox="0 0 336 336" style="enable-background:new 0 0 336 336;" xml:space="preserve">
<g>
	<g>
		<path d="M300.88,95.24h-60v-60C240.858,15.787,225.093,0.022,205.64,0h-75.28C111,0.088,95.328,15.76,95.24,35.12v60h-60
			C15.787,95.142,0.022,110.907,0,130.36v75.32c0.109,19.344,15.776,34.993,35.12,35.08h60v60
			c0.022,19.453,15.787,35.218,35.24,35.24h75.28c19.344-0.087,35.011-15.736,35.12-35.08v-60h60
			c19.453-0.022,35.218-15.787,35.24-35.24v-75.32C335.912,111,320.24,95.328,300.88,95.24z M328,205.68
			c-0.109,14.926-12.194,26.993-27.12,27.08h-64c-2.209,0-4,1.791-4,4v64c-0.022,15.035-12.205,27.218-27.24,27.24h-75.28
			c-14.926-0.087-27.011-12.154-27.12-27.08v-64c0-2.209-1.791-4-4-4h-64C20.205,232.898,8.022,220.715,8,205.68v-75.32
			c0-15.051,12.189-27.258,27.24-27.28l63.88,0.16c2.209,0,4-1.791,4-4v-64C103.142,20.205,115.325,8.022,130.36,8h75.28
			c14.942,0.087,27.033,12.178,27.12,27.12v64c0,2.209,1.791,4,4,4h64c15.035,0.022,27.218,12.205,27.24,27.24V205.68z"/>
	</g>
</g>
<g>
</g>
<g>
</g>
<g>
</g>
<g>
</g>
<g>
</g>
<g>
</g>
<g>
</g>
<g>
</g>
<g>
</g>
<g>
</g>
<g>
</g>
<g>
</g>
<g>
</g>
<g>
</g>
<g>
</g>
</svg>
